<svg width="24" height="24" viewBox="0 0 24 24" fill="none" xmlns="http://www.w3.org/2000/svg">
<path d="M5.48572 13.4779C5.48572 13.0208 5.86947 12.6503 6.34286 12.6503H7.37143C7.84482 12.6503 8.22857 13.0208 8.22857 13.4779C8.22857 13.9349 7.84482 14.3054 7.37143 14.3054H6.34286C5.86947 14.3054 5.48572 13.9349 5.48572 13.4779Z" fill="#006464"/>
<path d="M11.4857 12.6503C11.0124 12.6503 10.6286 13.0208 10.6286 13.4779C10.6286 13.9349 11.0124 14.3054 11.4857 14.3054H12.5143C12.9877 14.3054 13.3715 13.9349 13.3715 13.4779C13.3715 13.0208 12.9877 12.6503 12.5143 12.6503H11.4857Z" fill="#006464"/>
<path d="M15.7714 13.4779C15.7714 13.0208 16.1552 12.6503 16.6286 12.6503H17.6571C18.1305 12.6503 18.5143 13.0208 18.5143 13.4779C18.5143 13.9349 18.1305 14.3054 17.6571 14.3054H16.6286C16.1552 14.3054 15.7714 13.9349 15.7714 13.4779Z" fill="#006464"/>
<path d="M6.34286 16.5911C5.86947 16.5911 5.48572 16.9616 5.48572 17.4187C5.48572 17.8758 5.86947 18.2463 6.34286 18.2463H7.37143C7.84482 18.2463 8.22857 17.8758 8.22857 17.4187C8.22857 16.9616 7.84482 16.5911 7.37143 16.5911H6.34286Z" fill="#006464"/>
<path d="M10.6286 17.4187C10.6286 16.9616 11.0124 16.5911 11.4857 16.5911H12.5143C12.9877 16.5911 13.3715 16.9616 13.3715 17.4187C13.3715 17.8758 12.9877 18.2463 12.5143 18.2463H11.4857C11.0124 18.2463 10.6286 17.8758 10.6286 17.4187Z" fill="#006464"/>
<path d="M16.6286 16.5911C16.1552 16.5911 15.7714 16.9616 15.7714 17.4187C15.7714 17.8758 16.1552 18.2463 16.6286 18.2463H17.6571C18.1305 18.2463 18.5143 17.8758 18.5143 17.4187C18.5143 16.9616 18.1305 16.5911 17.6571 16.5911H16.6286Z" fill="#006464"/>
<path fill-rule="evenodd" clip-rule="evenodd" d="M8.57146 1.65517C8.57146 0.741045 7.80394 0 6.85717 0C5.9104 0 5.14288 0.741045 5.14288 1.65517V1.97046H0V24H24V1.97046H18.8572V1.65517C18.8572 0.741045 18.0896 0 17.1429 0C16.1961 0 15.4286 0.741045 15.4286 1.65517V1.97046H8.57146V1.65517ZM3.42857 7.88177V5.2808H20.5714V7.88177H3.42857ZM3.42857 11.1921V20.6896H20.5714V11.1921H3.42857Z" fill="#006464"/>
</svg>
