<svg width="211" height="136" viewBox="0 0 211 136" fill="none" xmlns="http://www.w3.org/2000/svg">
<g clip-path="url(#clip0_11176_99087)">
<path d="M147.267 91.719C125.561 91.7201 106.674 75.5808 103.884 53.5677L104.418 53.5005C107.173 75.2418 125.829 91.182 147.268 91.1833C149.089 91.1833 150.909 91.0688 152.716 90.8407C176.36 87.8635 193.167 66.2687 190.18 42.702L190.713 42.6348C193.737 66.4944 176.722 88.3581 152.783 91.3722C150.954 91.6029 149.111 91.7187 147.267 91.719Z" fill="#002060"/>
<path d="M164.576 21.5992C163.162 17.8727 163.291 13.7389 164.935 10.1071C166.578 6.4753 169.602 3.64305 173.341 2.23341C177.08 0.823762 181.227 0.952196 184.871 2.59045C188.515 4.22871 191.357 7.24259 192.771 10.9691L192.268 11.1587C190.904 7.56514 188.164 4.65876 184.65 3.07892C181.136 1.49909 177.137 1.37522 173.531 2.73457C169.926 4.09392 167.01 6.82514 165.425 10.3274C163.84 13.8296 163.715 17.816 165.079 21.4096L164.576 21.5992Z" fill="#002060"/>
<path d="M208.238 47.8194H180.917C180.185 47.8186 179.483 47.5283 178.966 47.0123C178.448 46.4963 178.157 45.7966 178.156 45.0668V9.01041C178.157 8.28063 178.448 7.58098 178.966 7.06494C179.483 6.54891 180.185 6.25864 180.917 6.25781H208.238C208.97 6.25864 209.672 6.54891 210.19 7.06494C210.708 7.58098 210.999 8.28063 211 9.01041V45.0668C210.999 45.7966 210.708 46.4963 210.19 47.0123C209.672 47.5283 208.97 47.8186 208.238 47.8194Z" fill="#CDD7DC"/>
<path d="M197.383 45.659H182.838C182.152 45.6583 181.495 45.3864 181.01 44.9032C180.525 44.4199 180.252 43.7646 180.251 43.0812V10.9959C180.252 10.3124 180.525 9.65712 181.01 9.17384C181.495 8.69056 182.152 8.41872 182.838 8.41797H206.318C207.004 8.41873 207.661 8.69057 208.146 9.17385C208.631 9.65714 208.904 10.3124 208.904 10.9959V34.1762C208.901 37.2206 207.686 40.1393 205.526 42.292C203.366 44.4447 200.438 45.6556 197.383 45.659Z" fill="#FCFCFC"/>
<path d="M203.976 24.5071H185.18C185.018 24.5071 184.862 24.4427 184.747 24.3281C184.632 24.2136 184.567 24.0582 184.567 23.8961C184.567 23.7341 184.632 23.5787 184.747 23.4641C184.862 23.3495 185.018 23.2852 185.18 23.2852H203.976C204.138 23.2852 204.294 23.3495 204.409 23.4641C204.524 23.5787 204.589 23.7341 204.589 23.8961C204.589 24.0582 204.524 24.2136 204.409 24.3281C204.294 24.4427 204.138 24.5071 203.976 24.5071Z" fill="#EEF1F4"/>
<path d="M203.975 26.9212H185.18C185.018 26.9209 184.862 26.8563 184.747 26.7418C184.633 26.6272 184.568 26.472 184.568 26.3102C184.568 26.1484 184.633 25.9932 184.747 25.8786C184.862 25.7641 185.018 25.6996 185.18 25.6992H203.975C204.138 25.6992 204.294 25.7636 204.409 25.8782C204.524 25.9928 204.588 26.1482 204.588 26.3102C204.588 26.4723 204.524 26.6277 204.409 26.7422C204.294 26.8568 204.138 26.9212 203.975 26.9212Z" fill="#EEF1F4"/>
<path d="M193.328 29.3353H185.18C185.018 29.3353 184.862 29.2709 184.747 29.1563C184.632 29.0417 184.567 28.8863 184.567 28.7243C184.567 28.5622 184.632 28.4068 184.747 28.2922C184.862 28.1777 185.018 28.1133 185.18 28.1133H193.328C193.49 28.1133 193.646 28.1777 193.761 28.2922C193.876 28.4068 193.941 28.5622 193.941 28.7243C193.941 28.8863 193.876 29.0417 193.761 29.1563C193.646 29.2709 193.49 29.3353 193.328 29.3353Z" fill="#EEF1F4"/>
<path d="M203.976 14.6477H185.18C185.018 14.6477 184.862 14.5833 184.747 14.4687C184.632 14.3542 184.567 14.1988 184.567 14.0367C184.567 13.8747 184.632 13.7193 184.747 13.6047C184.862 13.4902 185.018 13.4258 185.18 13.4258H203.976C204.138 13.4258 204.294 13.4902 204.409 13.6047C204.524 13.7193 204.589 13.8747 204.589 14.0367C204.589 14.1988 204.524 14.3542 204.409 14.4687C204.294 14.5833 204.138 14.6477 203.976 14.6477Z" fill="#EEF1F4"/>
<path d="M203.976 17.0618H185.18C185.018 17.0618 184.862 16.9974 184.747 16.8829C184.632 16.7683 184.567 16.6129 184.567 16.4508C184.567 16.2888 184.632 16.1334 184.747 16.0188C184.862 15.9042 185.018 15.8398 185.18 15.8398H203.976C204.138 15.8398 204.294 15.9042 204.409 16.0188C204.524 16.1334 204.589 16.2888 204.589 16.4508C204.589 16.6129 204.524 16.7683 204.409 16.8829C204.294 16.9974 204.138 17.0618 203.976 17.0618Z" fill="#EEF1F4"/>
<path d="M193.327 19.4778H185.18C185.018 19.4775 184.862 19.413 184.747 19.2984C184.633 19.1839 184.568 19.0287 184.568 18.8669C184.568 18.705 184.633 18.5498 184.747 18.4353C184.862 18.3207 185.018 18.2562 185.18 18.2559H193.327C193.49 18.2562 193.645 18.3207 193.76 18.4353C193.875 18.5498 193.939 18.705 193.939 18.8669C193.939 19.0287 193.875 19.1839 193.76 19.2984C193.645 19.413 193.49 19.4775 193.327 19.4778Z" fill="#EEF1F4"/>
<path d="M203.976 34.7122H185.18C185.018 34.7122 184.862 34.6478 184.747 34.5332C184.632 34.4186 184.567 34.2632 184.567 34.1012C184.567 33.9392 184.632 33.7838 184.747 33.6692C184.862 33.5546 185.018 33.4902 185.18 33.4902H203.976C204.138 33.4902 204.294 33.5546 204.409 33.6692C204.524 33.7838 204.589 33.9392 204.589 34.1012C204.589 34.2632 204.524 34.4186 204.409 34.5332C204.294 34.6478 204.138 34.7122 203.976 34.7122Z" fill="#6193CD"/>
<path d="M188.12 37.1263H185.18C185.018 37.1259 184.862 37.0614 184.747 36.9469C184.633 36.8323 184.568 36.6771 184.568 36.5153C184.568 36.3535 184.633 36.1982 184.747 36.0837C184.862 35.9692 185.018 35.9046 185.18 35.9043H188.12C188.283 35.9043 188.439 35.9687 188.554 36.0832C188.669 36.1978 188.733 36.3532 188.733 36.5153C188.733 36.6773 188.669 36.8327 188.554 36.9473C188.439 37.0619 188.283 37.1263 188.12 37.1263Z" fill="#6193CD"/>
<path d="M193.328 39.5403H185.18C185.018 39.5403 184.862 39.476 184.747 39.3614C184.632 39.2468 184.567 39.0914 184.567 38.9293C184.567 38.7673 184.632 38.6119 184.747 38.4973C184.862 38.3827 185.018 38.3184 185.18 38.3184H193.328C193.49 38.3184 193.646 38.3827 193.761 38.4973C193.876 38.6119 193.941 38.7673 193.941 38.9293C193.941 39.0914 193.876 39.2468 193.761 39.3614C193.646 39.476 193.49 39.5403 193.328 39.5403Z" fill="#6193CD"/>
<path d="M104.292 46.6092C101.924 40.3623 102.143 33.4341 104.899 27.3477C107.655 21.2614 112.724 16.5151 118.99 14.1525C125.257 11.7899 132.208 12.0043 138.316 14.7487C144.424 17.493 149.188 22.5426 151.561 28.7872L151.059 28.9769C149.91 25.948 148.175 23.1744 145.951 20.8142C143.727 18.4541 141.058 16.5539 138.097 15.2219C135.136 13.89 131.941 13.1526 128.694 13.0517C125.447 12.9509 122.212 13.4886 119.173 14.6342C116.135 15.7797 113.353 17.5107 110.985 19.7282C108.618 21.9457 106.713 24.6063 105.378 27.558C104.042 30.5097 103.304 33.6947 103.204 36.931C103.104 40.1673 103.644 43.3915 104.795 46.4195L104.292 46.6092Z" fill="#002060"/>
<path d="M151.272 5.54146C152.689 5.54146 153.837 4.39672 153.837 2.9846C153.837 1.57248 152.689 0.427734 151.272 0.427734C149.855 0.427734 148.707 1.57248 148.707 2.9846C148.707 4.39672 149.855 5.54146 151.272 5.54146Z" fill="#CDD7DC"/>
<path d="M154.765 79.1977C156.182 79.1977 157.33 78.053 157.33 76.6409C157.33 75.2287 156.182 74.084 154.765 74.084C153.348 74.084 152.2 75.2287 152.2 76.6409C152.2 78.053 153.348 79.1977 154.765 79.1977Z" fill="#CDD7DC"/>
<path d="M88.9257 18.3969C90.3425 18.3969 91.491 17.2522 91.491 15.8401C91.491 14.428 90.3425 13.2832 88.9257 13.2832C87.5089 13.2832 86.3604 14.428 86.3604 15.8401C86.3604 17.2522 87.5089 18.3969 88.9257 18.3969Z" fill="#CDD7DC"/>
<path d="M124.343 120.903H65.6156C64.0417 120.901 62.5328 120.277 61.4199 119.168C60.307 118.059 59.681 116.555 59.6792 114.986V37.4813C59.681 35.9126 60.307 34.4086 61.4199 33.2994C62.5328 32.1902 64.0417 31.5662 65.6156 31.5645H124.343C125.916 31.5662 127.425 32.1902 128.538 33.2994C129.651 34.4086 130.277 35.9126 130.279 37.4813V114.986C130.277 116.555 129.651 118.059 128.538 119.168C127.425 120.277 125.916 120.901 124.343 120.903Z" fill="#CDD7DC"/>
<path d="M101.928 116.105H69.7436C68.3105 116.103 66.9366 115.535 65.9233 114.525C64.91 113.515 64.34 112.146 64.3384 110.717V41.7487C64.34 40.3204 64.91 38.951 65.9233 37.941C66.9366 36.9311 68.3106 36.3629 69.7436 36.3613H120.215C121.648 36.3629 123.021 36.9311 124.035 37.941C125.048 38.951 125.618 40.3204 125.62 41.7487V92.4914C125.613 98.7519 123.114 104.754 118.673 109.181C114.231 113.608 108.209 116.098 101.928 116.105Z" fill="#FCFCFC"/>
<path d="M115.18 49.6031H74.7785C74.6053 49.6033 74.4338 49.5696 74.2737 49.5037C74.1136 49.4378 73.9681 49.3411 73.8456 49.2191C73.723 49.0971 73.6258 48.9523 73.5595 48.7928C73.4931 48.6334 73.459 48.4625 73.459 48.2898C73.459 48.1172 73.4931 47.9463 73.5595 47.7868C73.6258 47.6274 73.723 47.4825 73.8456 47.3605C73.9681 47.2386 74.1136 47.1419 74.2737 47.076C74.4338 47.0101 74.6053 46.9763 74.7785 46.9766H115.18C115.353 46.9763 115.524 47.0101 115.685 47.076C115.845 47.1419 115.99 47.2386 116.113 47.3605C116.235 47.4825 116.332 47.6274 116.399 47.7868C116.465 47.9463 116.499 48.1172 116.499 48.2898C116.499 48.4625 116.465 48.6334 116.399 48.7928C116.332 48.9523 116.235 49.0971 116.113 49.2191C115.99 49.3411 115.845 49.4378 115.685 49.5037C115.524 49.5696 115.353 49.6033 115.18 49.6031Z" fill="#6193CD"/>
<path d="M115.18 54.7927H74.7786C74.4291 54.7927 74.094 54.6543 73.8469 54.408C73.5998 54.1617 73.4609 53.8277 73.4609 53.4794C73.4609 53.131 73.5998 52.797 73.8469 52.5507C74.094 52.3044 74.4291 52.166 74.7786 52.166H115.18C115.529 52.166 115.865 52.3044 116.112 52.5507C116.359 52.797 116.498 53.131 116.498 53.4794C116.498 53.8277 116.359 54.1617 116.112 54.408C115.865 54.6543 115.529 54.7927 115.18 54.7927Z" fill="#6193CD"/>
<path d="M92.2916 59.9821H74.7786C74.4291 59.9821 74.094 59.8438 73.8469 59.5975C73.5998 59.3512 73.4609 59.0171 73.4609 58.6688C73.4609 58.3205 73.5998 57.9864 73.8469 57.7401C74.094 57.4938 74.4291 57.3555 74.7786 57.3555H92.2916C92.6411 57.3555 92.9762 57.4938 93.2233 57.7401C93.4705 57.9864 93.6093 58.3205 93.6093 58.6688C93.6093 59.0171 93.4705 59.3512 93.2233 59.5975C92.9762 59.8438 92.6411 59.9821 92.2916 59.9821Z" fill="#6193CD"/>
<path d="M115.18 70.8492H74.7785C74.6053 70.8495 74.4338 70.8157 74.2737 70.7498C74.1136 70.6839 73.9681 70.5872 73.8456 70.4652C73.723 70.3432 73.6258 70.1984 73.5595 70.0389C73.4931 69.8795 73.459 69.7085 73.459 69.5359C73.459 69.3633 73.4931 69.1924 73.5595 69.0329C73.6258 68.8735 73.723 68.7286 73.8456 68.6066C73.9681 68.4847 74.1136 68.388 74.2737 68.3221C74.4338 68.2562 74.6053 68.2224 74.7785 68.2227H115.18C115.353 68.2224 115.524 68.2562 115.685 68.3221C115.845 68.388 115.99 68.4847 116.113 68.6066C116.235 68.7286 116.332 68.8735 116.399 69.0329C116.465 69.1924 116.499 69.3633 116.499 69.5359C116.499 69.7085 116.465 69.8795 116.399 70.0389C116.332 70.1984 116.235 70.3432 116.113 70.4652C115.99 70.5872 115.845 70.6839 115.685 70.7498C115.524 70.8157 115.353 70.8495 115.18 70.8492Z" fill="#EEF1F4"/>
<path d="M115.18 76.0388H74.7786C74.4291 76.0388 74.094 75.9004 73.8469 75.6541C73.5998 75.4078 73.4609 75.0738 73.4609 74.7254C73.4609 74.3771 73.5998 74.0431 73.8469 73.7968C74.094 73.5505 74.4291 73.4121 74.7786 73.4121H115.18C115.529 73.4121 115.865 73.5505 116.112 73.7968C116.359 74.0431 116.498 74.3771 116.498 74.7254C116.498 75.0738 116.359 75.4078 116.112 75.6541C115.865 75.9004 115.529 76.0388 115.18 76.0388Z" fill="#EEF1F4"/>
<path d="M92.2916 81.2282H74.7786C74.4291 81.2282 74.094 81.0899 73.8469 80.8436C73.5998 80.5973 73.4609 80.2632 73.4609 79.9149C73.4609 79.5666 73.5998 79.2325 73.8469 78.9862C74.094 78.7399 74.4291 78.6016 74.7786 78.6016H92.2916C92.6411 78.6016 92.9762 78.7399 93.2233 78.9862C93.4705 79.2325 93.6093 79.5666 93.6093 79.9149C93.6093 80.2632 93.4705 80.5973 93.2233 80.8436C92.9762 81.0899 92.6411 81.2282 92.2916 81.2282Z" fill="#EEF1F4"/>
<path d="M115.18 92.0973H74.7785C74.6053 92.0975 74.4338 92.0637 74.2737 91.9978C74.1136 91.9319 73.9681 91.8352 73.8456 91.7133C73.723 91.5913 73.6258 91.4464 73.5595 91.287C73.4931 91.1275 73.459 90.9566 73.459 90.784C73.459 90.6114 73.4931 90.4404 73.5595 90.281C73.6258 90.1215 73.723 89.9767 73.8456 89.8547C73.9681 89.7327 74.1136 89.636 74.2737 89.5701C74.4338 89.5042 74.6053 89.4705 74.7785 89.4707H115.18C115.353 89.4705 115.524 89.5042 115.685 89.5701C115.845 89.636 115.99 89.7327 116.113 89.8547C116.235 89.9767 116.332 90.1215 116.399 90.281C116.465 90.4404 116.499 90.6114 116.499 90.784C116.499 90.9566 116.465 91.1275 116.399 91.287C116.332 91.4464 116.235 91.5913 116.113 91.7133C115.99 91.8352 115.845 91.9319 115.685 91.9978C115.524 92.0637 115.353 92.0975 115.18 92.0973Z" fill="#EEF1F4"/>
<path d="M115.18 97.2868H74.7786C74.4291 97.2868 74.094 97.1485 73.8469 96.9022C73.5998 96.6559 73.4609 96.3218 73.4609 95.9735C73.4609 95.6252 73.5998 95.2911 73.8469 95.0448C74.094 94.7985 74.4291 94.6602 74.7786 94.6602H115.18C115.529 94.6602 115.865 94.7985 116.112 95.0448C116.359 95.2911 116.498 95.6252 116.498 95.9735C116.498 96.3218 116.359 96.6559 116.112 96.9022C115.865 97.1485 115.529 97.2868 115.18 97.2868Z" fill="#EEF1F4"/>
<path d="M92.2917 102.476H74.7787C74.4296 102.476 74.0949 102.337 73.8482 102.091C73.6015 101.845 73.4629 101.511 73.4629 101.163C73.4629 100.815 73.6015 100.481 73.8482 100.235C74.0949 99.9887 74.4296 99.8501 74.7787 99.8496H92.2917C92.6408 99.8501 92.9755 99.9887 93.2222 100.235C93.4689 100.481 93.6075 100.815 93.6075 101.163C93.6075 101.511 93.4689 101.845 93.2222 102.091C92.9755 102.337 92.6408 102.476 92.2917 102.476Z" fill="#EEF1F4"/>
<path d="M169.591 63.3541H139.85C139.053 63.3532 138.289 63.0373 137.725 62.4755C137.162 61.9138 136.845 61.1522 136.844 60.3577V21.1077C136.845 20.3133 137.162 19.5517 137.725 18.9899C138.289 18.4282 139.053 18.1122 139.85 18.1113H169.591C170.388 18.1122 171.152 18.4282 171.715 18.9899C172.279 19.5517 172.596 20.3133 172.597 21.1077V60.3577C172.596 61.1521 172.279 61.9138 171.715 62.4755C171.152 63.0372 170.388 63.3532 169.591 63.3541Z" fill="#CDD7DC"/>
<path d="M158.566 60.9905H141.941C141.197 60.9897 140.485 60.695 139.959 60.1711C139.434 59.6473 139.138 58.937 139.137 58.1962V23.2691C139.138 22.5282 139.434 21.8179 139.959 21.294C140.485 20.7702 141.197 20.4755 141.941 20.4746H167.5C168.244 20.4754 168.956 20.7701 169.482 21.294C170.008 21.8179 170.303 22.5282 170.304 23.2691V49.2912C170.301 52.393 169.063 55.3667 166.862 57.56C164.662 59.7533 161.678 60.987 158.566 60.9905Z" fill="#FCFCFC"/>
<path d="M164.951 27.2461H144.491C144.314 27.2461 144.144 27.1761 144.019 27.0514C143.894 26.9266 143.823 26.7575 143.823 26.5811C143.823 26.4047 143.894 26.2355 144.019 26.1108C144.144 25.9861 144.314 25.916 144.491 25.916H164.951C165.128 25.916 165.297 25.9861 165.422 26.1108C165.548 26.2355 165.618 26.4047 165.618 26.5811C165.618 26.7575 165.548 26.9266 165.422 27.0514C165.297 27.1761 165.128 27.2461 164.951 27.2461Z" fill="#EEF1F4"/>
<path d="M164.951 29.8732H144.491C144.314 29.8728 144.145 29.8026 144.02 29.6779C143.895 29.5532 143.825 29.3842 143.825 29.2081C143.825 29.0319 143.895 28.8629 144.02 28.7382C144.145 28.6136 144.314 28.5433 144.491 28.543H164.951C165.127 28.5433 165.297 28.6136 165.422 28.7382C165.547 28.8629 165.617 29.0319 165.617 29.2081C165.617 29.3842 165.547 29.5532 165.422 29.6779C165.297 29.8026 165.127 29.8728 164.951 29.8732Z" fill="#EEF1F4"/>
<path d="M153.36 32.5021H144.491C144.314 32.5017 144.145 32.4315 144.02 32.3068C143.895 32.1821 143.825 32.0131 143.825 31.837C143.825 31.6608 143.895 31.4918 144.02 31.3672C144.145 31.2425 144.314 31.1722 144.491 31.1719H153.36C153.536 31.1722 153.706 31.2425 153.831 31.3672C153.955 31.4918 154.026 31.6608 154.026 31.837C154.026 32.0131 153.955 32.1821 153.831 32.3068C153.706 32.4315 153.536 32.5017 153.36 32.5021Z" fill="#EEF1F4"/>
<path d="M164.951 38.0059H144.491C144.314 38.0059 144.144 37.9358 144.019 37.8111C143.894 37.6864 143.823 37.5172 143.823 37.3408C143.823 37.1645 143.894 36.9953 144.019 36.8706C144.144 36.7459 144.314 36.6758 144.491 36.6758H164.951C165.128 36.6758 165.297 36.7459 165.422 36.8706C165.548 36.9953 165.618 37.1645 165.618 37.3408C165.618 37.5172 165.548 37.6864 165.422 37.8111C165.297 37.9358 165.128 38.0059 164.951 38.0059Z" fill="#6193CD"/>
<path d="M159.576 40.6329H144.491C144.314 40.6329 144.144 40.5629 144.019 40.4381C143.894 40.3134 143.823 40.1442 143.823 39.9678C143.823 39.7914 143.894 39.6223 144.019 39.4975C144.144 39.3728 144.314 39.3027 144.491 39.3027H159.576C159.753 39.3027 159.923 39.3728 160.048 39.4975C160.173 39.6223 160.243 39.7914 160.243 39.9678C160.243 40.1442 160.173 40.3134 160.048 40.4381C159.923 40.5629 159.753 40.6329 159.576 40.6329Z" fill="#6193CD"/>
<path d="M153.36 43.2618H144.491C144.314 43.2615 144.145 43.1913 144.02 43.0666C143.895 42.9419 143.825 42.7729 143.825 42.5967C143.825 42.4206 143.895 42.2516 144.02 42.1269C144.145 42.0022 144.314 41.932 144.491 41.9316H153.36C153.536 41.932 153.706 42.0022 153.831 42.1269C153.955 42.2516 154.026 42.4206 154.026 42.5967C154.026 42.7729 153.955 42.9419 153.831 43.0666C153.706 43.1913 153.536 43.2615 153.36 43.2618Z" fill="#6193CD"/>
<path d="M164.951 48.7657H144.491C144.314 48.7657 144.144 48.6956 144.019 48.5709C143.894 48.4461 143.823 48.277 143.823 48.1006C143.823 47.9242 143.894 47.7551 144.019 47.6303C144.144 47.5056 144.314 47.4355 144.491 47.4355H164.951C165.128 47.4355 165.297 47.5056 165.422 47.6303C165.548 47.7551 165.618 47.9242 165.618 48.1006C165.618 48.277 165.548 48.4461 165.422 48.5709C165.297 48.6956 165.128 48.7657 164.951 48.7657Z" fill="#EEF1F4"/>
<path d="M164.951 51.3947H144.491C144.314 51.3947 144.144 51.3246 144.019 51.1999C143.894 51.0751 143.823 50.906 143.823 50.7296C143.823 50.5532 143.894 50.384 144.019 50.2593C144.144 50.1345 144.314 50.0645 144.491 50.0645H164.951C165.128 50.0645 165.297 50.1345 165.422 50.2593C165.548 50.384 165.618 50.5532 165.618 50.7296C165.618 50.906 165.548 51.0751 165.422 51.1999C165.297 51.3246 165.128 51.3947 164.951 51.3947Z" fill="#EEF1F4"/>
<path d="M153.36 54.0216H144.491C144.314 54.0213 144.145 53.951 144.02 53.8263C143.895 53.7016 143.825 53.5327 143.825 53.3565C143.825 53.1803 143.895 53.0114 144.02 52.8867C144.145 52.762 144.314 52.6918 144.491 52.6914H153.36C153.536 52.6918 153.706 52.762 153.831 52.8867C153.955 53.0114 154.026 53.1803 154.026 53.3565C154.026 53.5327 153.955 53.7016 153.831 53.8263C153.706 53.951 153.536 54.0213 153.36 54.0216Z" fill="#EEF1F4"/>
<path d="M34.7729 76.8382C35.0006 76.5913 35.1712 76.2975 35.2727 75.9777C35.3743 75.6579 35.4042 75.3198 35.3604 74.9872C35.3167 74.6547 35.2003 74.3357 35.0194 74.0528C34.8386 73.7699 34.5977 73.5299 34.3138 73.3499L36.2004 65.416L32.2074 66.87L31.0281 74.1812C30.7562 74.6767 30.676 75.2543 30.8029 75.8047C30.9298 76.3551 31.2548 76.84 31.7164 77.1675C32.178 77.4951 32.7441 77.6424 33.3074 77.5817C33.8707 77.521 34.3921 77.2565 34.7728 76.8382L34.7729 76.8382Z" fill="#E68282"/>
<path d="M44.3749 43.5905L42.7724 47.6976C42.7724 47.6976 43.4592 51.8047 42.3146 52.7174C41.1699 53.6301 41.6278 53.6301 41.6278 54.3146C41.5884 54.8056 41.4457 55.2828 41.209 55.7152C40.9724 56.1477 40.6471 56.5256 40.2542 56.8245C39.3385 57.509 35.2179 71.4274 35.2179 71.4274H31.0972C31.2303 70.3667 31.2303 69.2937 31.0972 68.233C30.8682 66.6358 31.784 62.5287 32.2418 61.8442C32.6997 61.1597 32.2418 60.247 32.2418 58.878C32.2418 57.509 33.1575 56.8245 33.1575 54.5427C33.1575 52.261 35.9046 34.4637 35.6757 32.4102C35.4468 30.3566 37.965 28.5312 37.965 28.5312H40.2542L44.3749 43.5905Z" fill="#6193CD"/>
<path d="M54.0705 52.3017L57.8793 69.2429L33.4722 67.7296L40.1091 51.0918L54.0705 52.3017Z" fill="#E68282"/>
<path d="M0.869273 115.977C1.59583 118.595 2.73025 121.083 4.23112 123.351C7.58491 128.405 12.3845 132.27 17.6597 135.363C18.0252 135.58 18.396 135.792 18.7669 136.001H22.4673L22.5963 135.706V135.704L22.7468 135.363L22.7656 135.323L22.7737 135.363L22.9215 136.001H24.7381C24.8886 135.789 25.0364 135.578 25.1815 135.363C25.3938 135.05 25.598 134.734 25.7915 134.413C26.1331 133.85 26.4382 133.267 26.7052 132.666C26.7375 132.599 26.7643 132.532 26.7912 132.465L26.6703 132.334L27.1728 130.143L26.1624 129.977L27.2696 126.573C27.2292 126.447 27.1835 126.321 27.1352 126.195C26.5144 124.628 25.3481 123.458 23.9641 122.475C22.5399 121.46 20.8818 120.645 19.3581 119.799C18.6432 119.4 17.9392 118.979 17.2539 118.535V118.532C16.3778 117.967 15.5277 117.362 14.7036 116.719C14.6895 116.71 14.6761 116.7 14.6633 116.689C14.6519 116.681 14.6411 116.672 14.6311 116.662C10.9365 113.786 7.81004 110.25 5.41081 106.235C5.41046 106.235 5.4101 106.235 5.40978 106.235C5.40945 106.235 5.40914 106.235 5.40889 106.234C5.40864 106.234 5.40845 106.234 5.40832 106.234C5.40818 106.233 5.40812 106.233 5.40812 106.232C5.32752 106.104 5.2523 105.975 5.17705 105.844V105.841C4.19452 104.157 3.34889 102.397 2.64827 100.578V100.576C2.5945 100.442 2.54615 100.308 2.4951 100.174C2.42522 100.292 2.35804 100.41 2.29355 100.527C2.29319 100.527 2.29284 100.527 2.29251 100.528C2.29218 100.528 2.29188 100.528 2.29163 100.528C2.29138 100.528 2.29118 100.529 2.29105 100.529C2.29092 100.529 2.29085 100.53 2.29086 100.53C-0.315851 105.177 -0.563095 110.775 0.869273 115.977Z" fill="#F0F0F0"/>
<path d="M2.29086 100.529C2.26475 103.009 2.52351 105.484 3.06208 107.905C3.30411 109.013 3.60554 110.108 3.96506 111.184C4.66296 113.289 5.57512 115.317 6.68729 117.237C6.7491 117.341 6.80824 117.443 6.87273 117.545V117.548C7.34805 118.346 7.86379 119.121 8.41795 119.867C9.25658 121.056 10.2926 122.095 11.4815 122.937C12.4526 123.576 13.5507 123.999 14.7009 124.177C14.9159 124.217 15.1363 124.246 15.3593 124.273C16.2488 124.378 17.1679 124.418 18.0493 124.605C18.4958 124.693 18.9305 124.833 19.3447 125.02C20.7636 125.677 21.5617 127.051 21.911 128.519C21.9729 128.776 22.0212 129.036 22.0588 129.295C22.3518 131.291 22.0293 133.364 22.1959 135.362C22.2147 135.574 22.2389 135.788 22.2684 136H22.4673L22.5963 135.705V135.702C22.5829 135.59 22.5721 135.477 22.5614 135.362C22.4969 134.38 22.4888 133.396 22.5372 132.413C22.5479 131.971 22.556 131.526 22.5506 131.082C22.5452 130.726 22.5318 130.369 22.5049 130.016V130.013C22.4861 129.794 22.4646 129.577 22.4351 129.36C22.3497 128.695 22.1855 128.043 21.946 127.418C21.7122 126.773 21.3442 126.185 20.8663 125.692C20.3883 125.199 19.8111 124.812 19.1726 124.557C18.7826 124.411 18.3807 124.299 17.9714 124.222C17.0712 124.051 16.1413 124.008 15.2357 123.896C15.139 123.885 15.0422 123.871 14.9481 123.855C14.8272 123.837 14.709 123.815 14.5908 123.794C13.4058 123.584 12.2866 123.101 11.3229 122.382C10.1777 121.479 9.18201 120.401 8.37224 119.189C7.93155 118.56 7.5123 117.917 7.12266 117.256C7.12267 117.255 7.1226 117.255 7.12247 117.255C7.12234 117.254 7.12214 117.254 7.12189 117.254C7.12164 117.253 7.12134 117.253 7.12101 117.253C7.12068 117.253 7.12033 117.253 7.11997 117.253C7.10114 117.221 7.08235 117.191 7.06354 117.159L7.06085 117.154C5.38946 114.307 4.16935 111.22 3.44368 108.002C3.4195 107.884 3.39261 107.766 3.36577 107.648C2.867 105.324 2.62638 102.953 2.64826 100.577V100.574C2.64826 100.462 2.65091 100.352 2.6536 100.239C2.65898 100.009 2.30158 99.9581 2.29623 100.188C2.29355 100.301 2.29086 100.413 2.29355 100.526C2.29319 100.526 2.29284 100.526 2.29251 100.526C2.29217 100.526 2.29188 100.526 2.29162 100.527C2.29137 100.527 2.29117 100.527 2.29104 100.528C2.29091 100.528 2.29085 100.528 2.29086 100.529Z" fill="#FCFCFC"/>
<path d="M7.02643 117.473C6.00242 117.991 4.82686 118.13 3.7097 117.864C2.59253 117.598 1.60651 116.946 0.927724 116.022C0.791023 115.835 1.07665 115.614 1.21353 115.802C1.84403 116.663 2.76257 117.271 3.80338 117.516C4.84419 117.762 5.9387 117.628 6.88937 117.14C7.09608 117.034 7.23197 117.367 7.02643 117.473Z" fill="#FCFCFC"/>
<path d="M14.5563 123.902C15.3046 121.684 15.1866 119.266 14.2259 117.131C14.1306 116.92 14.4648 116.783 14.5601 116.994C15.5557 119.218 15.6733 121.734 14.8895 124.041C14.8147 124.261 14.4819 124.121 14.5563 123.902H14.5563Z" fill="#FCFCFC"/>
<path d="M3.26217 107.682C3.70032 107.564 4.10213 107.339 4.43152 107.027C4.76091 106.716 5.00755 106.328 5.14931 105.898C5.22134 105.678 5.5541 105.818 5.48254 106.037C5.3237 106.511 5.05078 106.939 4.68762 107.284C4.32447 107.629 3.88212 107.88 3.39925 108.015C3.3548 108.031 3.30571 108.031 3.26194 108.012C3.21818 107.994 3.18302 107.96 3.16362 107.917C3.1457 107.873 3.14599 107.823 3.16445 107.779C3.1829 107.735 3.21803 107.7 3.26218 107.682H3.26217Z" fill="#FCFCFC"/>
<path d="M17.2538 118.531V118.534C17.3371 120.446 17.5771 122.349 17.9713 124.223V124.225C17.9928 124.354 18.0223 124.48 18.0492 124.606C18.6978 127.504 19.6071 130.337 20.7661 133.072C21.0859 133.844 21.4209 134.607 21.7712 135.362C21.8679 135.577 21.9674 135.788 22.0694 136H22.4672L22.5962 135.705V135.703L22.7467 135.362L22.7655 135.322L22.7735 135.362L22.9214 136H26.7642L27.5113 135.362L28.5996 134.433L27.0786 132.778L26.8287 132.505L26.7911 132.464L26.6702 132.333L27.1727 130.142L26.1622 129.976L27.2694 126.572L27.7935 124.962L27.9251 124.558L28.691 122.203L31.0021 122.634L31.3784 121.322C30.6857 119.722 30.1091 118.074 29.6531 116.391C29.6504 116.378 29.6451 116.367 29.6424 116.353C28.4214 111.821 28.0551 107.102 28.5621 102.436V102.433C28.5782 102.283 28.597 102.131 28.6185 101.984V101.978C28.8489 100.045 29.2371 98.133 29.7794 96.2623C29.8171 96.1204 29.86 95.9811 29.9004 95.8418C29.7768 95.8954 29.6558 95.9463 29.5322 95.9998L29.5295 96.0025H29.5241C29.328 96.0882 29.1318 96.1793 28.941 96.2757C24.3564 98.4961 20.9838 102.664 19.0678 107.469C19.0624 107.482 19.057 107.493 19.0516 107.506C18.0518 110.025 17.456 112.686 17.2861 115.389C17.2216 116.435 17.2108 117.484 17.2538 118.531Z" fill="#F0F0F0"/>
<path d="M24.2275 135.999H24.6522C24.7865 135.782 24.9316 135.571 25.0768 135.362C25.3079 135.038 25.5461 134.721 25.7916 134.411C26.0039 134.143 26.2162 133.878 26.4285 133.613C26.6488 133.337 26.8665 133.061 27.0788 132.777L26.8289 132.504C26.7886 132.557 26.7483 132.611 26.7053 132.665C26.0173 133.567 25.273 134.435 24.636 135.362C24.4936 135.571 24.3565 135.782 24.2275 135.999Z" fill="#FCFCFC"/>
<path d="M29.9897 95.991C29.9199 96.0794 29.8473 96.1705 29.7801 96.2616C29.2561 96.9392 28.7607 97.6383 28.294 98.3588C27.4629 99.63 26.7246 100.959 26.085 102.336C26.034 102.443 25.9829 102.553 25.9346 102.663C24.5659 105.672 23.6739 108.874 23.2902 112.156C23.2849 112.188 23.2822 112.217 23.2795 112.249C23.1908 113.015 23.1335 113.784 23.1075 114.555C23.0218 116.008 23.166 117.465 23.5348 118.873C23.5885 119.058 23.6476 119.24 23.7121 119.417C23.8738 119.85 24.0763 120.267 24.3168 120.662C24.4896 120.951 24.6817 121.227 24.8919 121.49C25.0182 121.651 25.1499 121.809 25.2896 121.961C25.3702 122.05 25.4535 122.138 25.5368 122.227C25.6067 122.294 25.6739 122.363 25.7438 122.43C26.4693 123.132 27.2702 123.783 27.9259 124.557L27.7942 124.961C27.1627 124.163 26.3484 123.502 25.6148 122.805C25.1542 122.373 24.735 121.9 24.3625 121.391C24.3141 121.321 24.263 121.252 24.2174 121.179C23.9684 120.817 23.7534 120.432 23.5751 120.03C23.4837 119.829 23.4004 119.623 23.3252 119.409C22.8861 118.024 22.6862 116.575 22.734 115.123C22.7426 114.193 22.7982 113.265 22.9006 112.34C22.9113 112.22 22.9248 112.102 22.9409 111.981C23.2134 109.781 23.7104 107.615 24.4243 105.516C25.3278 102.852 26.5705 100.316 28.1221 97.9677C28.5655 97.2954 29.0357 96.6392 29.5329 95.999C29.5974 95.9107 29.6646 95.8249 29.7345 95.7366C29.8769 95.5544 30.1322 95.8089 29.9897 95.991Z" fill="#FCFCFC"/>
<path d="M23.0689 112.375C21.9381 112.174 20.9157 111.58 20.1842 110.697C19.4527 109.814 19.0598 108.702 19.0757 107.557C19.0767 107.51 19.096 107.466 19.1292 107.433C19.1625 107.4 19.2073 107.381 19.2542 107.381C19.301 107.38 19.3462 107.398 19.3803 107.43C19.4144 107.462 19.4347 107.506 19.4369 107.552C19.4202 108.618 19.7863 109.655 20.4691 110.476C21.152 111.296 22.1066 111.846 23.1606 112.027C23.3896 112.066 23.2966 112.414 23.0689 112.375L23.0689 112.375Z" fill="#FCFCFC"/>
<path d="M25.1982 122.026C27.1355 120.704 28.5017 118.703 29.0245 116.422C29.0761 116.195 29.4254 116.287 29.3738 116.513C28.8254 118.886 27.3994 120.966 25.3803 122.337C25.1878 122.467 25.0067 122.156 25.1982 122.026H25.1982Z" fill="#FCFCFC"/>
<path d="M25.9777 102.299C26.399 102.467 26.8557 102.529 27.3067 102.478C27.7578 102.427 28.1891 102.265 28.5619 102.007C28.7527 101.874 28.9336 102.186 28.7441 102.318C28.3308 102.601 27.8543 102.779 27.356 102.837C26.8578 102.894 26.3531 102.829 25.8859 102.647C25.8405 102.633 25.8018 102.603 25.7779 102.562C25.754 102.521 25.7466 102.473 25.7571 102.427C25.7695 102.381 25.7996 102.342 25.8409 102.318C25.8822 102.294 25.9314 102.287 25.9777 102.299Z" fill="#FCFCFC"/>
<path d="M50.0064 130.493L52.748 130.493L54.0524 119.953H50.0059L50.0064 130.493Z" fill="#E68282"/>
<path d="M49.0777 129.145L53.4118 128.887V130.737L57.5322 133.574C57.7358 133.714 57.889 133.915 57.9697 134.148C58.0503 134.381 58.0541 134.634 57.9805 134.869C57.9069 135.105 57.7598 135.31 57.5606 135.456C57.3613 135.602 57.1205 135.681 56.8731 135.681H51.7133L50.824 133.851L50.4767 135.681H48.5312L49.0777 129.145Z" fill="#071625"/>
<path d="M24.0938 129.133L26.7733 129.712L30.2897 119.687L26.3353 118.832L24.0938 129.133Z" fill="#E68282"/>
<path d="M23.4733 127.619L27.7636 128.283L27.3699 130.092L30.7934 133.734C30.9625 133.914 31.0695 134.143 31.0988 134.388C31.128 134.633 31.078 134.88 30.956 135.095C30.834 135.309 30.6464 135.479 30.4207 135.58C30.1949 135.681 29.9428 135.707 29.7011 135.654L24.6586 134.564L24.1788 132.587L23.4501 134.303L21.5488 133.892L23.4733 127.619Z" fill="#071625"/>
<path d="M4.78467 135.682C4.78454 135.724 4.79273 135.765 4.80876 135.804C4.82478 135.843 4.84834 135.878 4.87806 135.908C4.90778 135.937 4.94309 135.961 4.98195 135.977C5.0208 135.993 5.06245 136.001 5.10448 136.001H80.4277C80.5125 136.001 80.5938 135.967 80.6538 135.907C80.7138 135.848 80.7474 135.767 80.7474 135.682C80.7474 135.597 80.7138 135.516 80.6538 135.457C80.5938 135.397 80.5125 135.363 80.4277 135.363H5.10448C5.06245 135.363 5.0208 135.371 4.98195 135.387C4.94309 135.403 4.90779 135.427 4.87806 135.456C4.84834 135.486 4.82479 135.521 4.80876 135.56C4.79273 135.599 4.78455 135.64 4.78467 135.682Z" fill="#CCCCCC"/>
<path d="M58.5026 83.411C56.5785 93.9508 56.0975 98.5015 56.0975 98.5015C56.0975 98.5015 57.5406 100.178 56.5785 101.137C55.6164 102.096 56.5785 104.011 56.5785 104.011L54.06 124.056L53.5225 127.003L48.4789 126.293L49.2228 123.521L47.928 104.252C47.928 104.252 46.9659 102.334 47.447 101.855C47.928 101.375 46.9659 98.5015 46.9659 98.5015L45.7647 75.7453L38.3127 100.658C38.3127 100.658 39.0356 101.617 38.3127 102.334C37.5925 103.052 36.1521 106.647 36.1521 106.647L30.6802 121.11L29.6053 123.253L29.0334 122.983L26.518 122.511L26.0558 122.426L25.2335 122.27L24.7041 122.171L24.524 122.139L23.6533 121.976L23.9167 120.81L25.843 117.896L27.8026 103.601L27.8885 103.218L27.9799 102.814C27.9799 102.814 27.4989 101.617 28.2191 100.896C28.4298 100.676 28.5837 100.409 28.6675 100.117C28.7513 99.8248 28.7625 99.5167 28.7001 99.2193C28.6765 99.1943 28.655 99.1674 28.6356 99.139C28.5505 99.0226 28.4919 98.8891 28.4636 98.7479C28.3991 98.4479 28.4556 98.0274 28.942 97.5426C29.0789 97.3976 29.1939 97.2333 29.2833 97.0551C30.0142 95.6757 30.3824 92.7535 30.3824 92.7535C30.3824 92.7535 31.0327 69.6089 33.1611 66.0734C33.2739 65.8885 35.5334 62.3405 35.6516 62.2682C38.0541 60.8325 56.8046 62.5477 56.8046 62.5477C56.8046 62.5477 57.9383 65.5832 57.9893 65.8993C58.2662 67.6751 60.1338 74.4703 58.5026 83.411Z" fill="#071625"/>
<path d="M77.9598 31.9547C77.9176 32.2875 77.8028 32.607 77.6233 32.8907C77.4438 33.1745 77.204 33.4155 76.921 33.5969C76.6379 33.7783 76.3184 33.8957 75.9849 33.9407C75.6514 33.9857 75.312 33.9573 74.9907 33.8574L70.1299 40.4157L68.666 36.4378L73.5063 30.8198C73.7104 30.2929 74.1013 29.859 74.6049 29.6002C75.1085 29.3414 75.6899 29.2758 76.2388 29.4156C76.7878 29.5555 77.2662 29.8913 77.5834 30.3592C77.9006 30.8272 78.0345 31.3949 77.9598 31.9547H77.9598Z" fill="#E68282"/>
<path d="M33.6077 59.7331C33.1621 59.7331 32.909 59.646 32.811 59.4592C32.6671 59.1851 32.9167 58.827 33.2057 58.4121C33.4201 58.1413 33.5891 57.8377 33.7064 57.5131C33.8792 56.8242 35.0456 39.421 34.3479 35.9437C34.1865 35.1391 34.3255 34.1077 34.7607 32.8784C35.9497 29.5209 37.5726 28.489 40.8056 26.4336C41.0681 26.2667 41.3414 26.0924 41.6255 25.9107C41.993 25.6753 41.9725 24.8948 41.9509 24.0682C41.9269 23.1496 41.902 22.1996 42.3535 21.6058L42.3829 21.5671L42.4302 21.5561C43.5224 21.3045 47.1955 20.8373 49.3708 21.5595L49.4009 21.5697L49.4233 21.5919C49.9401 22.107 49.9872 23.1046 50.0327 24.0692C50.07 24.8613 50.1053 25.6091 50.3976 25.934C52.6326 28.417 55.1675 28.3686 55.1932 28.3681L55.3188 28.3645L55.3313 28.489C56.3034 38.3451 57.8707 53.2213 58.2037 53.8067C58.2212 53.8335 58.2309 53.8645 58.2319 53.8965C58.2328 53.9284 58.225 53.9599 58.2092 53.9877C57.7203 54.8982 35.2873 59.7331 33.6077 59.7331Z" fill="#6193CD"/>
<path d="M48.2061 18.7669C51.8672 18.7669 54.835 15.8088 54.835 12.1598C54.835 8.51082 51.8672 5.55273 48.2061 5.55273C44.545 5.55273 41.5771 8.51082 41.5771 12.1598C41.5771 15.8088 44.545 18.7669 48.2061 18.7669Z" fill="#E68282"/>
<path d="M52.6354 24.2369C52.3211 23.7897 50.7273 18.3263 50.029 16.6493C49.9576 17.0097 49.1568 18.407 49.138 18.7788L49.1311 18.9166L48.9938 18.9343C48.7874 18.9606 43.9119 19.5504 41.3746 16.6828C39.8713 14.9842 39.5304 12.4364 40.36 9.10868C40.2091 9.07916 40.0645 9.02366 39.9328 8.94467C39.7133 8.79331 39.5297 8.59608 39.3946 8.36671C39.2596 8.13734 39.1763 7.88137 39.1507 7.61664L39.0103 7.65418C38.2948 7.84655 37.4879 8.1011 36.9666 8.68867C36.3863 9.34213 36.283 10.23 36.1734 11.1699C36.1308 11.6187 36.0598 12.0642 35.9608 12.5041C35.6073 13.9255 34.6121 15.257 33.0028 16.4614C31.3826 17.6741 29.7308 18.3678 28.093 18.523C26.1586 18.707 24.2931 18.0735 23.1044 16.8299C21.7787 15.4434 21.432 13.3101 22.2797 11.7576L22.4161 11.5076L22.5659 11.7499C23.3205 12.9705 24.9693 13.6297 26.5758 13.3526C27.9534 13.1152 29.3189 12.2434 30.421 10.898C31.4271 9.66982 32.121 8.21934 32.7922 6.81656C33.4748 5.39025 34.1805 3.91529 35.1971 2.66378C36.3438 1.25214 37.7748 0.330262 39.2267 0.0676552C40.284 -0.122783 41.2275 0.0931039 41.8156 0.661187C42.2311 1.08806 42.4772 1.65063 42.5082 2.24458C42.8699 2.16403 43.2469 2.18563 43.5969 2.30693C43.9345 2.44381 44.2286 2.66917 44.4481 2.95914C44.6676 3.2491 44.8043 3.59285 44.8437 3.95395C46.974 2.83714 49.7933 3.01887 51.2515 3.85681C51.8621 4.2077 52.2127 4.64963 52.2749 5.14262C53.9972 5.23848 55.8496 6.91065 55.8496 9.27978V9.44475H55.6841C54.321 9.44475 53.0765 10.2261 52.3551 11.5348C51.9315 12.2975 51.7219 13.1598 51.7482 14.0312C51.7746 14.9025 52.0359 15.7507 52.5047 16.4866C53.0151 17.2671 53.3635 18.1415 53.5295 19.0583C53.6955 19.9752 53.6757 20.9158 53.4714 21.8249L52.8494 24.5414L52.6354 24.2369Z" fill="#071625"/>
<path d="M60.2449 48.9474L55.8752 46.4975C48.2554 41.2335 46.3785 37.0531 46.1439 34.4719C45.8935 31.7179 47.3656 30.2115 47.4285 30.149L47.4625 30.1241L51.4015 28.1182C51.9018 27.8634 52.4508 27.7175 53.012 27.6902C53.5732 27.663 54.1338 27.7549 54.6566 27.9599C55.1795 28.165 55.6526 28.4784 56.0447 28.8796C56.4368 29.2807 56.7388 29.7603 56.9308 30.2866L60.5744 40.274L64.6139 37.3045L66.3366 36.6278L67.7267 34.7751L71.5446 32.5557L74.3809 35.0999L70.814 42.2099L68.8324 42.7129L68.4121 43.7919L68.3747 43.8157L60.2449 48.9474Z" fill="#6193CD"/>
</g>
<defs>
<clipPath id="clip0_11176_99087">
<rect width="211" height="136" fill="white"/>
</clipPath>
</defs>
</svg>
