<svg width="24" height="20" viewBox="0 0 24 20" fill="none" xmlns="http://www.w3.org/2000/svg">
<path fill-rule="evenodd" clip-rule="evenodd" d="M12 6.14174C9.64691 6.14174 7.60563 7.96849 7.60563 10.3828C7.60563 12.7971 9.64691 14.6239 12 14.6239C14.3531 14.6239 16.3944 12.7971 16.3944 10.3828C16.3944 7.96849 14.3531 6.14174 12 6.14174ZM10.3099 10.3828C10.3099 9.61163 10.9927 8.85603 12 8.85603C13.0073 8.85603 13.6901 9.61163 13.6901 10.3828C13.6901 11.154 13.0073 11.9096 12 11.9096C10.9927 11.9096 10.3099 11.154 10.3099 10.3828Z" fill="#002060"/>
<path fill-rule="evenodd" clip-rule="evenodd" d="M12 0.882812C7.14071 0.882812 3.03239 3.93618 0.564413 8.25606C-0.188142 9.57331 -0.188137 11.1924 0.564425 12.5097C3.03241 16.8295 7.1407 19.8828 12 19.8828C16.8593 19.8828 20.9676 16.8294 23.4356 12.5096C24.1881 11.1923 24.1881 9.57322 23.4356 8.25597C20.9676 3.93614 16.8593 0.882812 12 0.882812ZM3.79002 10.1126C5.78486 6.6209 8.81483 4.61496 12 4.61496C15.1852 4.61496 18.2151 6.62088 20.21 10.1125C20.3056 10.2799 20.3056 10.4856 20.21 10.653C18.2151 14.1447 15.1852 16.1507 12 16.1507C8.81481 16.1507 5.78486 14.1447 3.79002 10.6531C3.69441 10.4857 3.69441 10.28 3.79002 10.1126Z" fill="#002060"/>
</svg>
