<svg width="17" height="24" viewBox="0 0 17 24" fill="none" xmlns="http://www.w3.org/2000/svg">
<path fill-rule="evenodd" clip-rule="evenodd" d="M16.5461 0H7.95992V0.0128195C3.85197 0.0887051 0.546143 3.31676 0.546143 7.28779C0.546143 11.3064 3.93167 14.5641 8.10793 14.5641C12.2842 14.5641 15.6697 11.3064 15.6697 7.28779C15.6697 6.10466 15.3763 4.98749 14.8556 3.99999H16.5461V0ZM8.10793 10.5641C9.98839 10.5641 11.5128 9.09726 11.5128 7.28779C11.5128 5.47831 9.98839 4.01144 8.10793 4.01144C6.22747 4.01144 4.70305 5.47831 4.70305 7.28779C4.70305 9.09726 6.22747 10.5641 8.10793 10.5641Z" fill="#006464"/>
<path d="M5.50785 21.7982C4.93236 22.5373 4.70899 23.4584 4.70899 24H0.552083C0.552083 22.6898 1.0097 20.9043 2.18105 19.3998C3.41983 17.8088 5.42569 16.5869 8.25599 16.5869C11.0863 16.5869 13.0921 17.8088 14.3309 19.3998C15.5023 20.9043 15.9599 22.6898 15.9599 24H11.803C11.803 23.4584 11.5796 22.5373 11.0041 21.7982C10.4961 21.1457 9.68919 20.5869 8.25599 20.5869C6.82278 20.5869 6.01592 21.1457 5.50785 21.7982Z" fill="#006464"/>
</svg>
