<svg width="17" height="25" viewBox="0 0 17 25" fill="none" xmlns="http://www.w3.org/2000/svg">
<path fill-rule="evenodd" clip-rule="evenodd" d="M16.5461 0.882812H7.95992V0.895632C3.85197 0.971518 0.546143 4.19957 0.546143 8.1706C0.546143 12.1892 3.93167 15.4469 8.10793 15.4469C12.2842 15.4469 15.6697 12.1892 15.6697 8.1706C15.6697 6.98747 15.3763 5.8703 14.8556 4.8828H16.5461V0.882812ZM8.10793 11.4469C9.98839 11.4469 11.5128 9.98007 11.5128 8.1706C11.5128 6.36112 9.98839 4.89425 8.10793 4.89425C6.22747 4.89425 4.70305 6.36112 4.70305 8.1706C4.70305 9.98007 6.22747 11.4469 8.10793 11.4469Z" fill="#002060"/>
<path d="M5.50785 22.681C4.93236 23.4202 4.70899 24.3412 4.70899 24.8828H0.552083C0.552083 23.5726 1.0097 21.7871 2.18105 20.2826C3.41983 18.6916 5.42569 17.4697 8.25599 17.4697C11.0863 17.4697 13.0921 18.6916 14.3309 20.2826C15.5023 21.7871 15.9599 23.5726 15.9599 24.8828H11.803C11.803 24.3412 11.5796 23.4202 11.0041 22.681C10.4961 22.0285 9.68919 21.4697 8.25599 21.4697C6.82278 21.4697 6.01592 22.0285 5.50785 22.681Z" fill="#002060"/>
</svg>
